<mxfile host="app.diagrams.net" modified="2023-03-16T23:22:25.612Z" agent="5.0 (Windows NT 10.0; Win64; x64) AppleWebKit/537.36 (KHTML, like Gecko) Chrome/111.0.0.0 Safari/537.36" etag="bkTE5o_0Z2hk-prsm8s8" version="20.8.20" type="github">
  <diagram name="Page-1" id="2YBvvXClWsGukQMizWep">
    <mxGraphModel dx="1687" dy="860" grid="1" gridSize="10" guides="1" tooltips="1" connect="1" arrows="1" fold="1" page="1" pageScale="1" pageWidth="850" pageHeight="1100" math="0" shadow="0">
      <root>
        <mxCell id="0" />
        <mxCell id="1" parent="0" />
        <mxCell id="XhK5mHDerDay14tQj9GK-1" value="Tea Production" style="ellipse;whiteSpace=wrap;html=1;aspect=fixed;" vertex="1" parent="1">
          <mxGeometry x="100" y="170" width="130" height="130" as="geometry" />
        </mxCell>
        <mxCell id="XhK5mHDerDay14tQj9GK-2" value="" style="endArrow=classic;html=1;rounded=0;" edge="1" parent="1">
          <mxGeometry width="50" height="50" relative="1" as="geometry">
            <mxPoint x="230" y="234.5" as="sourcePoint" />
            <mxPoint x="300" y="234.5" as="targetPoint" />
          </mxGeometry>
        </mxCell>
        <mxCell id="XhK5mHDerDay14tQj9GK-7" style="edgeStyle=orthogonalEdgeStyle;rounded=0;orthogonalLoop=1;jettySize=auto;html=1;exitX=1;exitY=0.5;exitDx=0;exitDy=0;entryX=0;entryY=0.5;entryDx=0;entryDy=0;" edge="1" parent="1" source="XhK5mHDerDay14tQj9GK-3" target="XhK5mHDerDay14tQj9GK-6">
          <mxGeometry relative="1" as="geometry" />
        </mxCell>
        <mxCell id="XhK5mHDerDay14tQj9GK-3" value="&lt;font style=&quot;font-size: 18px;&quot;&gt;Raw Material Acquisition&lt;br&gt;&lt;/font&gt;&lt;b&gt;Input&lt;/b&gt;&lt;br&gt;Tea plants&lt;br&gt;Paper Pulp&lt;br&gt;Water&lt;br&gt;Energy&lt;br&gt;Fertilizers&lt;br&gt;&lt;br&gt;&lt;b&gt;Output&lt;/b&gt;&lt;br&gt;Tea Leaves&lt;br&gt;Paper&lt;br&gt;&amp;nbsp; &amp;nbsp; &amp;nbsp; &amp;nbsp;&amp;nbsp;" style="whiteSpace=wrap;html=1;aspect=fixed;" vertex="1" parent="1">
          <mxGeometry x="280" y="131.88" width="206.25" height="206.25" as="geometry" />
        </mxCell>
        <mxCell id="XhK5mHDerDay14tQj9GK-5" style="edgeStyle=orthogonalEdgeStyle;rounded=0;orthogonalLoop=1;jettySize=auto;html=1;entryX=0.25;entryY=1;entryDx=0;entryDy=0;" edge="1" parent="1" source="XhK5mHDerDay14tQj9GK-4" target="XhK5mHDerDay14tQj9GK-3">
          <mxGeometry relative="1" as="geometry" />
        </mxCell>
        <mxCell id="XhK5mHDerDay14tQj9GK-4" value="Paper Production" style="ellipse;whiteSpace=wrap;html=1;aspect=fixed;" vertex="1" parent="1">
          <mxGeometry x="90" y="312.5" width="130" height="130" as="geometry" />
        </mxCell>
        <mxCell id="XhK5mHDerDay14tQj9GK-9" value="" style="edgeStyle=orthogonalEdgeStyle;rounded=0;orthogonalLoop=1;jettySize=auto;html=1;fontSize=18;" edge="1" parent="1" source="XhK5mHDerDay14tQj9GK-6" target="XhK5mHDerDay14tQj9GK-8">
          <mxGeometry relative="1" as="geometry" />
        </mxCell>
        <mxCell id="XhK5mHDerDay14tQj9GK-6" value="&lt;font style=&quot;font-size: 18px;&quot;&gt;Material Processing&lt;/font&gt;&lt;br&gt;&lt;b&gt;Input&lt;/b&gt;&lt;br&gt;&amp;nbsp;Tea Leaves&lt;br&gt;&amp;nbsp;Paper&amp;nbsp;&lt;br&gt;Energy&lt;br&gt;Water&lt;br&gt;&lt;br&gt;&lt;b&gt;Output&lt;/b&gt;&lt;br&gt;Cleaned Tea&amp;nbsp;&lt;br&gt;Perforated Paper Bags&lt;br&gt;&lt;br&gt;&amp;nbsp; &amp;nbsp; &amp;nbsp; &amp;nbsp;" style="whiteSpace=wrap;html=1;aspect=fixed;" vertex="1" parent="1">
          <mxGeometry x="540" y="137.5" width="195" height="195" as="geometry" />
        </mxCell>
        <mxCell id="XhK5mHDerDay14tQj9GK-12" value="" style="edgeStyle=orthogonalEdgeStyle;rounded=0;orthogonalLoop=1;jettySize=auto;html=1;fontSize=18;" edge="1" parent="1" source="XhK5mHDerDay14tQj9GK-8" target="XhK5mHDerDay14tQj9GK-11">
          <mxGeometry relative="1" as="geometry" />
        </mxCell>
        <mxCell id="XhK5mHDerDay14tQj9GK-8" value="&lt;font style=&quot;font-size: 18px;&quot;&gt;Manufacturing&lt;/font&gt;&lt;br&gt;&lt;b&gt;Input&lt;/b&gt;&lt;br&gt;Clean Tea&lt;br&gt;Perforated Paper&amp;nbsp;&lt;br&gt;Paper Box&lt;br&gt;Plastics&lt;br&gt;Energy&lt;br&gt;Water&lt;br&gt;&lt;br&gt;&lt;b&gt;Output&lt;br&gt;&lt;/b&gt;Tea Boxes with 36 filled tea bags covered in a thin plastic&amp;nbsp;&lt;br&gt;&lt;br&gt;&amp;nbsp; &amp;nbsp; &amp;nbsp; &amp;nbsp;" style="whiteSpace=wrap;html=1;aspect=fixed;" vertex="1" parent="1">
          <mxGeometry x="528.75" y="412.5" width="217.5" height="217.5" as="geometry" />
        </mxCell>
        <mxCell id="XhK5mHDerDay14tQj9GK-16" style="edgeStyle=orthogonalEdgeStyle;rounded=0;orthogonalLoop=1;jettySize=auto;html=1;exitX=0;exitY=0.5;exitDx=0;exitDy=0;entryX=1.011;entryY=0.467;entryDx=0;entryDy=0;entryPerimeter=0;fontSize=18;" edge="1" parent="1" source="XhK5mHDerDay14tQj9GK-11" target="XhK5mHDerDay14tQj9GK-14">
          <mxGeometry relative="1" as="geometry" />
        </mxCell>
        <mxCell id="XhK5mHDerDay14tQj9GK-11" value="&lt;span style=&quot;font-size: 18px;&quot;&gt;Transportation&lt;/span&gt;&lt;br&gt;Energy&lt;br&gt;Fuel&lt;br&gt;&amp;nbsp; &amp;nbsp; &amp;nbsp; &amp;nbsp;" style="whiteSpace=wrap;html=1;aspect=fixed;" vertex="1" parent="1">
          <mxGeometry x="552.5" y="710" width="170" height="170" as="geometry" />
        </mxCell>
        <mxCell id="XhK5mHDerDay14tQj9GK-19" value="" style="edgeStyle=orthogonalEdgeStyle;rounded=0;orthogonalLoop=1;jettySize=auto;html=1;fontSize=18;" edge="1" parent="1" source="XhK5mHDerDay14tQj9GK-14" target="XhK5mHDerDay14tQj9GK-18">
          <mxGeometry relative="1" as="geometry" />
        </mxCell>
        <mxCell id="XhK5mHDerDay14tQj9GK-14" value="&lt;font style=&quot;font-size: 18px;&quot;&gt;Use&lt;/font&gt;&lt;br&gt;&lt;b&gt;Input&lt;/b&gt;&lt;br&gt;Tea Bag&lt;br&gt;Energy&lt;br&gt;Water&lt;br&gt;&lt;br&gt;&lt;b&gt;Output&lt;br&gt;&lt;/b&gt;250ml of Tea&lt;br&gt;&amp;nbsp; &amp;nbsp; &amp;nbsp; &amp;nbsp;" style="whiteSpace=wrap;html=1;aspect=fixed;" vertex="1" parent="1">
          <mxGeometry x="250" y="710" width="180" height="180" as="geometry" />
        </mxCell>
        <mxCell id="XhK5mHDerDay14tQj9GK-18" value="&lt;span style=&quot;font-size: 18px;&quot;&gt;Disposal&lt;/span&gt;&lt;br&gt;Garbage&lt;br&gt;&amp;nbsp; &amp;nbsp; &amp;nbsp; &amp;nbsp;" style="whiteSpace=wrap;html=1;aspect=fixed;" vertex="1" parent="1">
          <mxGeometry x="20" y="710" width="180" height="180" as="geometry" />
        </mxCell>
      </root>
    </mxGraphModel>
  </diagram>
</mxfile>
